<svg id="Layer_1" data-name="Layer 1" xmlns="http://www.w3.org/2000/svg" xmlns:xlink="http://www.w3.org/1999/xlink" viewBox="0 0 230.5 395"><defs><style>.cls-1{fill:#fff;}.cls-2{fill:url(#linear-gradient);}.cls-3{fill:url(#linear-gradient-2);}.cls-4,.cls-5{opacity:0.53;}.cls-4{fill:url(#linear-gradient-3);}.cls-5{fill:url(#linear-gradient-4);}</style><linearGradient id="linear-gradient" x1="162.67" y1="106.15" x2="286.92" y2="106.15" gradientUnits="userSpaceOnUse"><stop offset="0.04" stop-color="#fe9401"/><stop offset="0.34" stop-color="#fc9001"/><stop offset="0.62" stop-color="#f78501"/><stop offset="0.88" stop-color="#ed7300"/><stop offset="0.96" stop-color="#ea6c00"/></linearGradient><linearGradient id="linear-gradient-2" x1="268" y1="-149.69" x2="392.25" y2="-149.69" gradientTransform="translate(450.25 218.96) rotate(180)" xlink:href="#linear-gradient"/><linearGradient id="linear-gradient-3" x1="261.58" y1="-147.44" x2="392.58" y2="-147.44" gradientTransform="translate(450.25 218.96) rotate(180)" xlink:href="#linear-gradient"/><linearGradient id="linear-gradient-4" x1="157.67" y1="106.48" x2="287.92" y2="106.48" xlink:href="#linear-gradient"/></defs><title>bgRegister</title><rect class="cls-1" width="229.25" height="395"/><path class="cls-2" d="M162.67,39.9s36,11.16,52,63.16,72.25,69.34,72.25,69.34V39.9Z" transform="translate(-57.42 -39.9)"/><path class="cls-3" d="M182.25,434.9s-36-11.17-52-63.17S58,302.4,58,302.4V434.9Z" transform="translate(-57.42 -39.9)"/><path class="cls-4" d="M188.67,434.9s-38-11.55-54.83-65.32S57.67,297.9,57.67,297.9v137Z" transform="translate(-57.42 -39.9)"/><path class="cls-5" d="M157.67,39.9S196.33,50.45,213,114.77c12.79,42.88,74.92,58.29,74.92,58.29V39.9Z" transform="translate(-57.42 -39.9)"/></svg>